Coordinates
version=1
nRows=13
nColumns=34
inDegrees=yes

Units are S.I. units (second, meters, Newtons, ...)
If the header above contains a line with 'inDegrees', this indicates whether rotational values are in degrees (yes) or radians (no).

endheader
time	pelvis_tilt	pelvis_list	pelvis_rotation	pelvis_tx	pelvis_ty	pelvis_tz	hip_flexion_r	hip_adduction_r	hip_rotation_r	knee_angle_r	ankle_angle_r	subtalar_angle_r	mtp_angle_r	hip_flexion_l	hip_adduction_l	hip_rotation_l	knee_angle_l	ankle_angle_l	subtalar_angle_l	mtp_angle_l	lumbar_extension	lumbar_bending	lumbar_rotation	arm_flex_r	arm_add_r	arm_rot_r	elbow_flex_r	pro_sup_r	arm_flex_l	arm_add_l	arm_rot_l	elbow_flex_l	pro_sup_l
      2.90000000	     -4.72471103	      1.64113449	     -3.91323171	      0.54609774	      0.87561947	     -0.06967797	      4.25111040	     -8.35791254	     -8.14734848	      1.51364971	      7.04018482	      0.60271670	      0.00000000	      2.06730593	     -7.79753229	    -19.10356830	      0.17693005	      4.24133812	     -2.25751383	      0.00000000	      5.31157141	      0.53542610	      1.21587896	     76.46734965	      5.57590836	     68.04313932	    123.04071223	     94.26535918	     53.81013781	    -13.13942721	     71.49581499	    110.88656752	     78.00076708
      2.91666670	     -4.80156746	      1.57450202	     -4.22693168	      0.54562548	      0.87005469	     -0.06935197	      4.46877959	     -8.25338738	     -7.99505837	      1.69433285	      7.16576628	      0.71776318	      0.00000000	      1.97549323	     -7.92749176	    -19.24196425	      0.11956977	      4.40366899	     -2.17763982	      0.00000000	      5.33245994	      0.41186407	      1.66352907	     77.54546638	      4.65367951	     66.87278747	    123.94080671	     89.88029042	     56.49409526	    -14.86683300	     76.15193953	    108.63476336	     74.93931356
      2.93333330	     -5.01741761	      1.49561500	     -4.34006941	      0.54324776	      0.86719836	     -0.06924076	      4.70985411	     -8.13141184	     -7.93769187	      1.70790747	      7.51149064	      0.56176094	      0.00000000	      2.16031181	     -8.08171861	    -19.23974424	      0.15178763	      4.65744638	     -2.26081465	      0.00000000	      5.53297986	      0.72261460	      0.93057608	     78.76505806	      5.64128822	     65.95828824	    122.59092782	     89.03312592	     57.76344913	    -17.33552517	     78.14414243	    106.27270693	     74.26114876
      2.95000000	     -5.25063858	      1.49982949	     -4.59328320	      0.54358143	      0.87179690	     -0.07121368	      5.10758087	     -8.14991661	     -7.89181548	      1.87911854	      7.88834432	      0.77789459	      0.00000000	      2.35365617	     -8.10101015	    -19.43068009	      0.11015812	      4.68485525	     -2.41620083	      0.00000000	      5.63425073	      0.58775734	      1.07499152	     78.51654276	      5.48256966	     65.43924188	    123.43840671	     85.25134825	     59.99181222	    -18.86344397	     80.53319479	     99.74432954	     70.12030090
      2.96666670	     -5.24984379	      1.39840431	     -4.59630136	      0.54414233	      0.86575210	     -0.06986781	      5.04706851	     -8.04705768	     -7.70081064	      1.76668511	      7.97715688	      0.67005896	      0.00000000	      2.35582089	     -8.26620366	    -19.25452436	      0.18560128	      5.00143702	     -2.35133102	      0.00000000	      5.47355345	      0.90571370	      0.31726062	     78.93466085	      6.97268930	     65.91078192	    121.82594458	     84.72214203	     61.84746340	    -21.12236637	     79.81681117	     93.37921078	     69.09509997
      2.98333330	     -5.31631817	      1.30009092	     -4.67381418	      0.54211639	      0.86563465	     -0.06718817	      5.14930279	     -7.89566252	     -7.43749154	      1.72897033	      8.28402872	      0.65229296	      0.00000000	      2.44976266	     -8.44151106	    -19.31219931	      0.23134300	      5.08192765	     -2.38316074	      0.00000000	      5.48153986	      1.01936068	      0.46252579	     78.97229222	      8.09564073	     66.55610556	    120.58609133	     84.23702646	     63.51529650	    -21.25713115	     77.08237207	     85.23128260	     67.72483999
      3.00000000	     -5.53475395	      1.27871368	     -4.78821581	      0.54022369	      0.86988293	     -0.06633215	      5.46601682	     -7.79323972	     -7.31785055	      1.69112826	      8.35290847	      0.66320603	      0.00000000	      2.71809484	     -8.55527721	    -19.39162429	      0.25770398	      5.13246360	     -2.41864836	      0.00000000	      5.93042383	      1.08713552	      1.99959702	     78.17679801	      7.90525380	     67.59673569	    120.07073068	     83.90382531	     64.24287434	    -18.95379687	     73.41432721	     78.79820101	     66.15694697
      3.01666670	     -5.73697515	      1.29130928	     -4.83173531	      0.53862718	      0.87232558	     -0.06601298	      5.74697022	     -7.70594833	     -7.17500975	      1.59475208	      8.36738032	      0.69801061	      0.00000000	      3.03874410	     -8.61539606	    -19.65374286	      0.29477038	      5.03371789	     -2.52065773	      0.00000000	      6.15265447	      0.81168536	      3.49060713	     76.18068935	      7.04287897	     68.67047741	    120.59593570	     83.90914985	     63.54840110	    -15.71011740	     68.95475874	     77.40579209	     64.79348150
      3.03333330	     -5.83136289	      1.31323779	     -4.68510839	      0.54034295	      0.87517798	     -0.06579174	      5.77556326	     -7.65717123	     -7.19951575	      1.44920628	      8.17325257	      0.69075891	      0.00000000	      3.29991776	     -8.64416265	    -19.75675325	      0.37738898	      4.83853120	     -2.45846719	      0.00000000	      5.86271098	      0.37270248	      3.37913385	     74.30355290	      8.03945203	     67.95994598	    121.20806320	     84.12753074	     63.38891047	    -14.58309822	     65.36026223	     78.63645847	     63.72341459
      3.05000000	     -5.90661883	      1.31502483	     -4.63685328	      0.53879176	      0.86993412	     -0.06793410	      5.90187209	     -7.63620704	     -7.33121866	      1.44780415	      8.01635904	      0.54966243	      0.00000000	      3.48579772	     -8.65923747	    -19.96703408	      0.42653216	      4.76966108	     -2.47544659	      0.00000000	      5.47203402	      0.19703414	      2.59896203	     72.48213063	      9.57228459	     66.74779900	    121.95543816	     85.05847635	     63.87798527	    -14.16164463	     60.15016054	     81.82299392	     62.66588730
      3.06666670	     -5.85845335	      1.32884112	     -4.44949554	      0.54028565	      0.87280428	     -0.07031702	      5.77660217	     -7.68646527	     -7.47570005	      1.39086052	      7.83622460	      0.54989341	      0.00000000	      3.51979251	     -8.59782278	    -19.98357642	      0.39312996	      4.67207509	     -2.29197200	      0.00000000	      5.04153532	     -0.08331432	      2.27890463	     69.90882915	      9.66012700	     65.01539722	    123.19085817	     86.57167034	     64.58013798	    -12.34881060	     55.68089117	     85.19778628	     62.29374519
      3.08333330	     -5.76011569	      1.27135264	     -4.30192391	      0.54065645	      0.86624416	     -0.07161395	      5.67703580	     -7.71838678	     -7.56209297	      1.43899431	      7.71414499	      0.44606873	      0.00000000	      3.57283008	     -8.59507092	    -20.08883737	      0.56760935	      4.75964308	     -2.38363565	      0.00000000	      4.50908603	     -0.31755861	      2.71729110	     68.38493260	      9.62101883	     62.53892503	    124.31079312	     87.24366216	     66.51883632	     -9.64734208	     52.59916903	     89.51107356	     62.41908485
      3.10000000	     -5.75888505	      1.27755248	     -4.00582411	      0.53946148	      0.86899589	     -0.07341051	      5.64581362	     -7.85838338	     -7.86339523	      1.55227843	      7.59346589	      0.27372860	      0.00000000	      3.67957530	     -8.47140999	    -19.93414280	      0.51243617	      4.81613578	     -2.16241404	      0.00000000	      4.14488691	     -0.32785177	      2.75157572	     67.25083220	     10.09268687	     61.51604072	    124.19156136	     90.12873544	     67.44208045	     -6.87521790	     48.88810718	     94.70496623	     63.43217267
